<svg xmlns="http://www.w3.org/2000/svg" preserveAspectRatio="xMidYMid meet" viewBox="25.152344 55.5 235.34766 209"><path fill-rule="evenodd" d="M 43.101563 96.0 L 43.101563 104.0 L 52.0 104.0 L 52.0 96.0 L 43.101563 96.0 Z " fill="blue" fill-opacity="0.2" stroke="crimson" stroke-width="0.5" stroke-opacity="0.5"/><path fill-rule="evenodd" d="M 43.101563 76.0 L 43.101563 84.0 L 52.0 84.0 L 52.0 76.0 L 43.101563 76.0 Z " fill="blue" fill-opacity="0.2" stroke="crimson" stroke-width="0.5" stroke-opacity="0.5"/><path fill-rule="evenodd" d="M 38.652344 56.0 L 38.652344 64.0 L 52.0 64.0 L 52.0 56.0 L 38.652344 56.0 Z " fill="blue" fill-opacity="0.2" stroke="crimson" stroke-width="0.5" stroke-opacity="0.5"/><path d="M 60.0 100.0 L 55.0 100.0" fill="blue" fill-opacity="0.2" stroke="crimson" stroke-width="0.5" stroke-opacity="0.5"/><path d="M 60.0 80.0 L 55.0 80.0" fill="blue" fill-opacity="0.2" stroke="crimson" stroke-width="0.5" stroke-opacity="0.5"/><path d="M 60.0 60.0 L 55.0 60.0" fill="blue" fill-opacity="0.2" stroke="crimson" stroke-width="0.5" stroke-opacity="0.5"/><path fill-rule="evenodd" d="M 43.101563 136.0 L 43.101563 144.0 L 52.0 144.0 L 52.0 136.0 L 43.101563 136.0 Z " fill="blue" fill-opacity="0.2" stroke="crimson" stroke-width="0.5" stroke-opacity="0.5"/><path fill-rule="evenodd" d="M 43.101563 116.0 L 43.101563 124.0 L 52.0 124.0 L 52.0 116.0 L 43.101563 116.0 Z " fill="blue" fill-opacity="0.2" stroke="crimson" stroke-width="0.5" stroke-opacity="0.5"/><path fill-rule="evenodd" d="M 25.652344 108.32275 L 25.652344 211.67725 L 35.652344 211.67725 L 35.652344 108.32275 L 25.652344 108.32275 Z " fill="blue" fill-opacity="0.2" stroke="crimson" stroke-width="0.5" stroke-opacity="0.5"/><path d="M 60.0 140.0 L 55.0 140.0" fill="blue" fill-opacity="0.2" stroke="crimson" stroke-width="0.5" stroke-opacity="0.5"/><path d="M 60.0 120.0 L 55.0 120.0" fill="blue" fill-opacity="0.2" stroke="crimson" stroke-width="0.5" stroke-opacity="0.5"/><path d="M 60.0 80.0 L 260.0 80.0" fill="blue" fill-opacity="0.2" stroke="crimson" stroke-width="0.5" stroke-opacity="0.5"/><path d="M 60.0 60.0 L 260.0 60.0" fill="blue" fill-opacity="0.2" stroke="crimson" stroke-width="0.5" stroke-opacity="0.5"/><path d="M 60.0 260.5 L 60.0 59.5" fill="blue" fill-opacity="0.2" stroke="crimson" stroke-width="0.5" stroke-opacity="0.5"/><path fill-rule="evenodd" d="M 216.52173 86.0 L 216.52173 260.0 L 233.91302 260.0 L 233.91302 86.0 L 216.52173 86.0 Z " fill="blue" fill-opacity="0.2" stroke="crimson" stroke-width="0.5" stroke-opacity="0.5"/><path fill-rule="evenodd" d="M 151.30435 98.0 L 151.30435 260.0 L 168.69565 260.0 L 168.69565 98.0 L 151.30435 98.0 Z " fill="blue" fill-opacity="0.2" stroke="crimson" stroke-width="0.5" stroke-opacity="0.5"/><path fill-rule="evenodd" d="M 129.56522 78.0 L 129.56522 260.0 L 146.95651 260.0 L 146.95651 78.0 L 129.56522 78.0 Z " fill="blue" fill-opacity="0.2" stroke="crimson" stroke-width="0.5" stroke-opacity="0.5"/><path d="M 60.0 140.0 L 260.0 140.0" fill="blue" fill-opacity="0.2" stroke="crimson" stroke-width="0.5" stroke-opacity="0.5"/><path d="M 60.0 120.0 L 260.0 120.0" fill="blue" fill-opacity="0.2" stroke="crimson" stroke-width="0.5" stroke-opacity="0.5"/><path d="M 60.0 100.0 L 260.0 100.0" fill="blue" fill-opacity="0.2" stroke="crimson" stroke-width="0.5" stroke-opacity="0.5"/><path fill-rule="evenodd" d="M 173.04347 154.0 L 173.04347 260.0 L 190.43478 260.0 L 190.43478 154.0 L 173.04347 154.0 Z " fill="blue" fill-opacity="0.2" stroke="crimson" stroke-width="0.5" stroke-opacity="0.5"/><path fill-rule="evenodd" d="M 86.08695 150.0 L 86.08695 260.0 L 103.47826 260.0 L 103.47826 150.0 L 86.08695 150.0 Z " fill="blue" fill-opacity="0.2" stroke="crimson" stroke-width="0.5" stroke-opacity="0.5"/><path fill-rule="evenodd" d="M 43.101563 196.0 L 43.101563 204.0 L 52.0 204.0 L 52.0 196.0 L 43.101563 196.0 Z " fill="blue" fill-opacity="0.2" stroke="crimson" stroke-width="0.5" stroke-opacity="0.5"/><path fill-rule="evenodd" d="M 43.101563 176.0 L 43.101563 184.0 L 52.0 184.0 L 52.0 176.0 L 43.101563 176.0 Z " fill="blue" fill-opacity="0.2" stroke="crimson" stroke-width="0.5" stroke-opacity="0.5"/><path fill-rule="evenodd" d="M 43.101563 156.0 L 43.101563 164.0 L 52.0 164.0 L 52.0 156.0 L 43.101563 156.0 Z " fill="blue" fill-opacity="0.2" stroke="crimson" stroke-width="0.5" stroke-opacity="0.5"/><path d="M 60.0 200.0 L 55.0 200.0" fill="blue" fill-opacity="0.2" stroke="crimson" stroke-width="0.5" stroke-opacity="0.5"/><path d="M 60.0 180.0 L 55.0 180.0" fill="blue" fill-opacity="0.2" stroke="crimson" stroke-width="0.5" stroke-opacity="0.5"/><path d="M 60.0 160.0 L 55.0 160.0" fill="blue" fill-opacity="0.2" stroke="crimson" stroke-width="0.5" stroke-opacity="0.5"/><path fill-rule="evenodd" d="M 47.55078 256.0 L 47.55078 264.0 L 52.0 264.0 L 52.0 256.0 L 47.55078 256.0 Z " fill="blue" fill-opacity="0.2" stroke="crimson" stroke-width="0.5" stroke-opacity="0.5"/><path fill-rule="evenodd" d="M 43.101563 236.0 L 43.101563 244.0 L 52.0 244.0 L 52.0 236.0 L 43.101563 236.0 Z " fill="blue" fill-opacity="0.2" stroke="crimson" stroke-width="0.5" stroke-opacity="0.5"/><path fill-rule="evenodd" d="M 43.101563 216.0 L 43.101563 224.0 L 52.0 224.0 L 52.0 216.0 L 43.101563 216.0 Z " fill="blue" fill-opacity="0.2" stroke="crimson" stroke-width="0.5" stroke-opacity="0.5"/><path d="M 60.0 260.0 L 55.0 260.0" fill="blue" fill-opacity="0.2" stroke="crimson" stroke-width="0.5" stroke-opacity="0.5"/><path d="M 60.0 240.0 L 55.0 240.0" fill="blue" fill-opacity="0.2" stroke="crimson" stroke-width="0.5" stroke-opacity="0.5"/><path d="M 60.0 200.0 L 260.0 200.0" fill="blue" fill-opacity="0.2" stroke="crimson" stroke-width="0.5" stroke-opacity="0.5"/><path d="M 60.0 180.0 L 260.0 180.0" fill="blue" fill-opacity="0.2" stroke="crimson" stroke-width="0.5" stroke-opacity="0.5"/><path d="M 60.0 160.0 L 260.0 160.0" fill="blue" fill-opacity="0.2" stroke="crimson" stroke-width="0.5" stroke-opacity="0.5"/><path fill-rule="evenodd" d="M 238.26086 156.0 L 238.26086 260.0 L 255.65216 260.0 L 255.65216 156.0 L 238.26086 156.0 Z " fill="blue" fill-opacity="0.2" stroke="crimson" stroke-width="0.5" stroke-opacity="0.5"/><path fill-rule="evenodd" d="M 107.82608 174.0 L 107.82608 260.0 L 125.21739 260.0 L 125.21739 174.0 L 107.82608 174.0 Z " fill="blue" fill-opacity="0.2" stroke="crimson" stroke-width="0.5" stroke-opacity="0.5"/><path fill-rule="evenodd" d="M 64.347824 204.0 L 64.347824 260.0 L 81.73913 260.0 L 81.73913 204.0 L 64.347824 204.0 Z " fill="blue" fill-opacity="0.2" stroke="crimson" stroke-width="0.5" stroke-opacity="0.5"/><path d="M 60.0 240.0 L 260.0 240.0" fill="blue" fill-opacity="0.2" stroke="crimson" stroke-width="0.5" stroke-opacity="0.5"/><path d="M 60.0 220.0 L 260.0 220.0" fill="blue" fill-opacity="0.2" stroke="crimson" stroke-width="0.5" stroke-opacity="0.5"/><path d="M 60.0 220.0 L 55.0 220.0" fill="blue" fill-opacity="0.2" stroke="crimson" stroke-width="0.5" stroke-opacity="0.5"/><path fill-rule="evenodd" d="M 194.78261 222.0 L 194.78261 260.0 L 212.17392 260.0 L 212.17392 222.0 L 194.78261 222.0 Z " fill="blue" fill-opacity="0.2" stroke="crimson" stroke-width="0.5" stroke-opacity="0.5"/><path d="M 60.0 260.0 L 260.0 260.0" fill="blue" fill-opacity="0.2" stroke="crimson" stroke-width="0.5" stroke-opacity="0.5"/></svg>