<svg width="1000" height="500" xmlns="http://www.w3.org/2000/svg">
<style>
        .root { fill: #f0f0f0; stroke: #333; stroke-width: 2; }
        .title { fill: #d0d0ff; stroke: #666; stroke-width: 1; }
        .chart { fill: #fff; stroke: #999; stroke-width: 2; }
        .y-axis { fill: #ffe0e0; stroke: #999; stroke-width: 1; }
        .x-axis { fill: #e0ffe0; stroke: #999; stroke-width: 1; }
        .legend { fill: #ffffe0; stroke: #999; stroke-width: 1; }
        .label { font-family: Arial, sans-serif; font-size: 12px; text-anchor: middle; }
        .small { font-size: 10px; }
        .baseline { stroke: #f00; stroke-width: 2; stroke-dasharray: 5,5; opacity: 0.5; }
    </style>
<rect x="0" y="0" width="1000" height="500" class="root" />
<rect x="16.0" y="40.0" width="505.0" height="30.0" class="x-axis" />
<text x="268.5" y="55.0" class="label">Time Series (16:9)</text>
<rect x="561.0" y="40.0" width="463.0" height="30.0" class="title" />
<text x="792.5" y="55.0" class="label">Categories (4:3)</text>
<rect x="16.0" y="230.0" width="60.0" height="250.0" class="y-axis" />
<text x="46.0" y="355.0" class="label">Values</text>
<rect x="561.0" y="190.0" width="40.0" height="250.0" class="y-axis" />
<text x="581.0" y="315.0" class="label">Count</text>
<rect x="76.0" y="230.0" width="445.0" height="250.0" class="chart" />
<text x="298.5" y="355.0" class="label">Chart 1</text>
<text x="298.5" y="472.0" class="label small">445×250</text>
<rect x="601.0" y="190.0" width="333.0" height="250.0" class="chart" />
<text x="767.5" y="315.0" class="label">Chart 2</text>
<text x="767.5" y="432.0" class="label small">333×250</text>
<rect x="76.0" y="480.0" width="445.0" height="20.0" class="x-axis" />
<text x="298.5" y="490.0" class="label">Time</text>
<rect x="601.0" y="440.0" width="333.0" height="60.0" class="x-axis" />
<text x="767.5" y="470.0" class="label">Categories</text>
<rect x="944.0" y="340.0" width="80.0" height="100.0" class="legend" />
<text x="984.0" y="390.0" class="label">Legend</text>
</svg>
