<svg width="800" height="500" xmlns="http://www.w3.org/2000/svg">
<style>
        .root { fill: #f0f0f0; stroke: #333; stroke-width: 2; }
        .title { fill: #d0d0ff; stroke: #666; stroke-width: 1; }
        .chart-area { fill: #fff; stroke: #999; stroke-width: 2; }
        .y-axis { fill: #ffe0e0; stroke: #999; stroke-width: 1; }
        .x-axis { fill: #e0ffe0; stroke: #999; stroke-width: 1; }
        .legend { fill: #ffffe0; stroke: #999; stroke-width: 1; }
        .label { font-family: Arial, sans-serif; font-size: 12px; text-anchor: middle; }
        .small { font-size: 10px; }
        .baseline { stroke: #f00; stroke-width: 2; stroke-dasharray: 5,5; opacity: 0.5; }
    </style>
<rect x="0" y="0" width="800" height="500" class="root" />
<rect x="-74.0" y="190.0" width="505.0" height="30.0" class="title" />
<text x="178.5" y="205.0" class="label">Time Series (16:9)</text>
<rect x="451.0" y="150.0" width="463.0" height="30.0" class="title" />
<text x="682.5" y="165.0" class="label">Categories (4:3)</text>
<rect x="0.0" y="0.0" width="60.0" height="250.0" class="y-axis" />
<text x="30.0" y="125.0" class="label">Values</text>
<rect x="0.0" y="0.0" width="40.0" height="250.0" class="y-axis" />
<text x="20.0" y="125.0" class="label">Count</text>
<rect x="0.0" y="0.0" width="445.0" height="250.0" class="chart-area" />
<text x="222.5" y="125.0" class="label">Chart 1</text>
<text x="222.5" y="242.0" class="label small">445x250 (ratio: 1.78)</text>
<rect x="0.0" y="0.0" width="333.0" height="250.0" class="chart-area" />
<text x="166.5" y="125.0" class="label">Chart 2</text>
<text x="166.5" y="242.0" class="label small">333x250 (ratio: 1.33)</text>
<rect x="0.0" y="500.0" width="445.0" height="20.0" class="x-axis" />
<text x="222.5" y="510.0" class="label">Time</text>
<rect x="0.0" y="500.0" width="333.0" height="60.0" class="x-axis" />
<text x="166.5" y="530.0" class="label">Categories</text>
<rect x="766.0" y="300.0" width="80.0" height="100.0" class="legend" />
<text x="806.0" y="350.0" class="label">Legend</text>
<line x1="-20.0" y1="250.0" x2="465.0" y2="250.0" class="baseline" />
<text x="222.5" y="270.0" class="label small" fill="red">Baseline (Charts aligned)</text>
</svg>
