
<svg width="900" height="400" xmlns="http://www.w3.org/2000/svg">
<style>
        .background { fill: #f5f5f5; }
        .title { fill: #e8e8ff; stroke: #666; stroke-width: 1; }
        .chart { fill: #fff; stroke: #333; stroke-width: 2; }
        .caption { fill: #f0f0f0; stroke: #999; stroke-width: 1; }
        .label { font-family: Arial, sans-serif; font-size: 14px; text-anchor: middle; }
        .dimension { font-family: monospace; font-size: 12px; fill: #666; }
        .grid { stroke: #ddd; stroke-width: 1; }
        .measure { stroke: #f00; stroke-width: 2; marker-end: url(#arrowhead); }
        .measure-label { font-family: Arial, sans-serif; font-size: 12px; fill: #f00; text-anchor: middle; }
    </style>
<defs>
    <marker id="arrowhead" markerWidth="10" markerHeight="7" refX="9" refY="3.5" orient="auto">
        <polygon points="0 0, 10 3.5, 0 7" fill="#f00" />
    </marker>
</defs>
<rect x="0" y="0" width="900" height="400" class="background" />
<line x1="0" y1="0" x2="0" y2="400" class="grid" />
<line x1="50" y1="0" x2="50" y2="400" class="grid" />
<line x1="100" y1="0" x2="100" y2="400" class="grid" />
<line x1="150" y1="0" x2="150" y2="400" class="grid" />
<line x1="200" y1="0" x2="200" y2="400" class="grid" />
<line x1="250" y1="0" x2="250" y2="400" class="grid" />
<line x1="300" y1="0" x2="300" y2="400" class="grid" />
<line x1="350" y1="0" x2="350" y2="400" class="grid" />
<line x1="400" y1="0" x2="400" y2="400" class="grid" />
<line x1="450" y1="0" x2="450" y2="400" class="grid" />
<line x1="500" y1="0" x2="500" y2="400" class="grid" />
<line x1="550" y1="0" x2="550" y2="400" class="grid" />
<line x1="600" y1="0" x2="600" y2="400" class="grid" />
<line x1="650" y1="0" x2="650" y2="400" class="grid" />
<line x1="700" y1="0" x2="700" y2="400" class="grid" />
<line x1="750" y1="0" x2="750" y2="400" class="grid" />
<line x1="800" y1="0" x2="800" y2="400" class="grid" />
<line x1="850" y1="0" x2="850" y2="400" class="grid" />
<line x1="900" y1="0" x2="900" y2="400" class="grid" />
<line x1="0" y1="0" x2="900" y2="0" class="grid" />
<line x1="0" y1="50" x2="900" y2="50" class="grid" />
<line x1="0" y1="100" x2="900" y2="100" class="grid" />
<line x1="0" y1="150" x2="900" y2="150" class="grid" />
<line x1="0" y1="200" x2="900" y2="200" class="grid" />
<line x1="0" y1="250" x2="900" y2="250" class="grid" />
<line x1="0" y1="300" x2="900" y2="300" class="grid" />
<line x1="0" y1="350" x2="900" y2="350" class="grid" />
<line x1="0" y1="400" x2="900" y2="400" class="grid" />
<rect x="322.0" y="85.0" width="0.0" height="30.0" class="title" />
<text x="322.0" y="100.0" class="label">16:9 Aspect Ratio</text>
<rect x="662.0" y="85.0" width="0.0" height="30.0" class="title" />
<text x="662.0" y="100.0" class="label">4:3 Aspect Ratio</text>
<rect x="144.0" y="125.0" width="355.0" height="200.0" class="chart" />
<text x="321.5" y="225.0" class="label">Chart Area</text>
<rect x="529.0" y="125.0" width="267.0" height="200.0" class="chart" />
<text x="662.5" y="225.0" class="label">Chart Area</text>
<rect x="322.0" y="335.0" width="0.0" height="20.0" class="caption" />
<text x="322.0" y="345.0" class="dimension">356×200px</text>
<rect x="662.0" y="335.0" width="0.0" height="20.0" class="caption" />
<text x="662.0" y="345.0" class="dimension">267×200px</text>
<line x1="104.0" y1="125.0" x2="104.0" y2="325.0" class="measure" />
<text x="99.0" y="225.0" class="measure-label" transform="rotate(-90 99.0 225.0)">200px</text>
<line x1="816.0" y1="125.0" x2="816.0" y2="325.0" class="measure" />
<text x="821.0" y="225.0" class="measure-label" transform="rotate(-90 821.0 225.0)">200px</text>
<line x1="144.0" y1="355.0" x2="499.0" y2="355.0" class="measure" />
<text x="321.5" y="350.0" class="measure-label">355px</text>
<line x1="529.0" y1="355.0" x2="796.0" y2="355.0" class="measure" />
<text x="662.5" y="350.0" class="measure-label">267px</text>
<text x="321.5" y="115.0" class="dimension">16:9 = 1.77</text>
<text x="662.5" y="115.0" class="dimension">4:3 = 1.34</text>
</svg>
